<?xml version="1.0" encoding="utf-8"?>
<!-- Generator: Adobe Illustrator 19.0.0, SVG Export Plug-In . SVG Version: 6.00 Build 0)  -->
<svg version="1.0" id="Layer_1" xmlns="http://www.w3.org/2000/svg" xmlns:xlink="http://www.w3.org/1999/xlink" x="0px" y="0px"
	 viewBox="0 0 1920 1080" style="enable-background:new 0 0 1920 1080;" xml:space="preserve">
<style type="text/css">
	.st0{fill:#D86072;}
	.st1{clip-path:url(#XMLID_27_);fill:#BFE9FF;}
	.st2{clip-path:url(#XMLID_27_);fill:#A3C8D8;}
	.st3{fill:#A3C8D8;}
	.st4{fill:#FF6E7F;}
	.st5{fill:#BFE9FF;}
</style>
<g id="XMLID_1_">
	<path id="XMLID_4_" class="st0" d="M249.14,721.745c-28.389-28.389,47.903-150.709,170.206-273.012
		s244.623-198.595,273.012-170.207l-40.868-39.588c-28.389-28.389-150.549,47.743-272.852,170.047S180.202,653.448,208.591,681.837
		L249.14,721.745z"/>
	<g id="XMLID_7_">
		<defs>
			<path id="XMLID_9_" d="M423.603,316.531c9.18-9.872,16.869-19.452,25.863-27.591c48.743-44.11,105.408-58.987,168.182-39.011
				C683.55,270.9,722.83,318.514,738.836,384.995c9.962,41.377,4.997,82.051-9.115,122.189
				c-26.021,74.011-75.764,130.683-131.726,182.854c-49.984,46.598-105.132,86.393-164.112,120.805
				c-4.514,2.634-12.791,3.881-16.832,1.519c-84.109-49.182-161.548-107.13-224.345-182.172
				c-23.601-28.202-45.604-59.085-61.625-92.011c-34.296-70.487-41.008-143.231,2.855-213.13
				c64.714-103.125,202.008-112.029,280.672-19.132C417.33,309.132,420.055,312.344,423.603,316.531z"/>
		</defs>
		<clipPath id="XMLID_27_">
			<use xlink:href="#XMLID_9_"  style="overflow:visible;"/>
		</clipPath>
		<path id="XMLID_17_" class="st1" d="M423.603,316.531c9.18-9.872,16.869-19.452,25.863-27.591
			c48.743-44.11,105.408-58.987,168.182-39.011C683.55,270.9,722.83,318.514,738.836,384.995
			c9.962,41.377,4.997,82.051-9.115,122.189c-26.021,74.011-75.764,130.683-131.726,182.854
			c-49.984,46.598-105.132,86.393-164.112,120.805c-4.514,2.634-12.791,3.881-16.832,1.519
			c-84.109-49.182-161.548-107.13-224.345-182.172c-23.601-28.202-45.604-59.085-61.625-92.011
			c-34.296-70.487-41.008-143.231,2.855-213.13c64.714-103.125,202.008-112.029,280.672-19.132
			C417.33,309.132,420.055,312.344,423.603,316.531z"/>
		<path id="XMLID_3_" class="st2" d="M660.271,247.4c28.389,28.389-47.903,150.709-170.206,273.012S245.442,719.007,217.053,690.618
			l40.868,39.588c28.389,28.389,150.549-47.743,272.852-170.047S729.209,315.697,700.82,287.308L660.271,247.4z"/>
	</g>
	<path id="XMLID_5_" class="st3" d="M423.603,316.531c0,0,18.103,19.302,24.886,47.278c0,0-6.782-71.307,54.357-109.93
		C502.846,253.879,460.734,270.272,423.603,316.531z"/>
	<path id="XMLID_2_" class="st4" d="M652.359,239.487c28.389,28.389-47.903,150.709-170.207,273.012S237.529,711.095,209.14,682.706
		l40.868,39.588c28.389,28.389,150.549-47.743,272.852-170.047s198.435-244.463,170.047-272.852L652.359,239.487z"/>
</g>
<g id="XMLID_8_">
	<g id="XMLID_6_">
		<path id="XMLID_11_" class="st5" d="M1588.624,565.455h-45.444c-12.335,0-22.427-10.345-22.427-22.99v0
			c0-12.644,10.092-22.99,22.427-22.99h45.444V565.455z"/>
		<path id="XMLID_10_" class="st4" d="M1634.067,565.455h-45.444v-45.979h45.444c12.335,0,22.427,10.345,22.427,22.99v0
			C1656.494,555.11,1646.402,565.455,1634.067,565.455z"/>
	</g>
	<g id="XMLID_26_">
		<path id="XMLID_12_" class="st5" d="M854.431,642.197c-14.599-9.167-25.801-22.335-33.611-39.513
			c-7.815-17.174-11.718-37.459-11.718-60.851c0-23.391,3.903-43.622,11.718-60.692c7.81-17.07,19.012-30.188,33.611-39.355
			c14.595-9.167,31.864-13.751,51.806-13.751c13.77,0,26.982,2.529,39.626,7.587c12.642,5.058,23.176,12.012,31.608,20.863
			c2.052,2.109,3.084,4.638,3.084,7.587c0,1.689-0.415,3.112-1.234,4.267c-0.823,1.161-1.85,1.739-3.084,1.739
			c-1.647,0-3.391-0.84-5.242-2.529c-11.718-10.115-22.357-17.069-31.915-20.863c-9.56-3.793-20.714-5.69-33.458-5.69
			c-26.111,0-46.41,8.851-60.903,26.553c-14.493,17.702-21.74,42.467-21.74,74.285c0,32.035,7.193,56.899,21.585,74.602
			c14.388,17.701,34.74,26.553,61.057,26.553c12.951,0,24.154-1.897,33.612-5.69c9.454-3.793,20.044-10.747,31.762-20.862
			c2.26-1.685,4.009-2.529,5.242-2.529c1.234,0,2.26,0.583,3.084,1.739c0.819,1.161,1.234,2.583,1.234,4.267
			c0,2.953-1.032,5.482-3.084,7.587c-8.432,8.85-18.965,15.805-31.608,20.862c-12.644,5.058-25.855,7.587-39.626,7.587
			C886.295,655.948,869.026,651.363,854.431,642.197z"/>
		<path id="XMLID_14_" class="st5" d="M1046.078,633.977c-13.877-14.645-20.815-36.297-20.815-64.959V436.254
			c0-2.317,0.563-4.11,1.695-5.374c1.128-1.265,2.722-1.897,4.78-1.897c1.851,0,3.339,0.686,4.471,2.055
			c1.128,1.373,1.696,3.112,1.696,5.216v134.977c0,47.84,23.229,71.756,69.692,71.756c22.819,0,40.088-6.006,51.806-18.018
			c11.717-12.012,17.577-29.921,17.577-53.738V436.254c0-2.104,0.665-3.843,2.004-5.216c1.335-1.368,2.824-2.055,4.471-2.055
			c1.851,0,3.392,0.686,4.625,2.055c1.234,1.373,1.851,3.112,1.851,5.216v132.765c0,28.662-6.991,50.314-20.969,64.959
			c-13.983,14.65-34.436,21.97-61.365,21.97C1080.461,655.948,1059.955,648.628,1046.078,633.977z"/>
		<path id="XMLID_18_" class="st5" d="M1248.983,652.944c-1.132-1.367-1.695-3.106-1.695-5.215V436.254
			c0-2.104,0.563-3.843,1.695-5.216c1.128-1.368,2.722-2.055,4.78-2.055c1.851,0,3.339,0.686,4.471,2.055
			c1.128,1.373,1.696,3.112,1.696,5.216v211.475c0,2.109-0.568,3.848-1.696,5.215c-1.132,1.368-2.62,2.055-4.471,2.055
			C1251.705,654.999,1250.11,654.312,1248.983,652.944z"/>
		<path id="XMLID_20_" class="st5" d="M1321.446,651.206c-1.542-1.473-2.313-3.053-2.313-4.742V437.517
			c0-1.897,0.771-3.526,2.313-4.899c1.542-1.368,3.339-2.055,5.396-2.055h59.207c33.921,0,60.132,9.538,78.634,28.608
			c18.502,19.075,27.753,46.626,27.753,82.662c0,35.829-9.251,63.38-27.753,82.661c-18.502,19.283-44.713,28.924-78.634,28.924
			h-59.207C1324.785,653.419,1322.988,652.682,1321.446,651.206z M1385.74,641.406c31.656,0,55.044-8.535,70.154-25.605
			c15.111-17.069,22.666-41.726,22.666-73.969c0-66.17-30.943-99.257-92.819-99.257h-53.965v198.831H1385.74z"/>
	</g>
	<g id="XMLID_25_">
		<path id="XMLID_23_" class="st4" d="M1696.756,648.361c-3.392-3.369-5.088-8.11-5.088-14.225v-184.29
			c0-6.109,1.695-10.851,5.088-14.225c3.393-3.368,8.066-5.058,14.031-5.058h111.32c5.96,0,10.586,1.373,13.877,4.11
			c3.286,2.741,4.934,6.638,4.934,11.696c0,5.27-1.648,9.325-4.934,12.17c-3.291,2.845-7.916,4.267-13.877,4.267h-91.585v61.325
			h85.418c5.96,0,10.586,1.373,13.877,4.11c3.286,2.741,4.934,6.747,4.934,12.012c0,5.058-1.648,8.96-4.934,11.696
			c-3.291,2.741-7.916,4.11-13.877,4.11h-85.418v65.118h91.585c5.96,0,10.586,1.422,13.877,4.267
			c3.286,2.846,4.934,6.905,4.934,12.171c0,5.057-1.648,8.959-4.934,11.696c-3.291,2.741-7.916,4.11-13.877,4.11h-111.32
			C1704.823,653.419,1700.149,651.734,1696.756,648.361z"/>
	</g>
</g>
</svg>
