<?xml version="1.0" encoding="utf-8"?>
<!-- Generator: Adobe Illustrator 19.0.0, SVG Export Plug-In . SVG Version: 6.00 Build 0)  -->
<svg version="1.0" id="Layer_1" xmlns="http://www.w3.org/2000/svg" xmlns:xlink="http://www.w3.org/1999/xlink" x="0px" y="0px"
	 viewBox="0 0 1920 1080" style="enable-background:new 0 0 1920 1080;" xml:space="preserve">
<style type="text/css">
	.st0{fill:#D86072;}
	.st1{clip-path:url(#XMLID_10_);fill:#BFE9FF;}
	.st2{clip-path:url(#XMLID_10_);fill:#A3C8D8;}
	.st3{fill:#A3C8D8;}
	.st4{fill:#FF6E7F;}
	.st5{fill:#BFE9FF;}
</style>
<g id="XMLID_1_">
	<path id="XMLID_4_" class="st0" d="M236.616,817.939c-39.763-39.763,67.095-211.088,238.397-382.39s342.627-278.16,382.39-238.397
		l-57.242-55.449c-39.763-39.763-210.864,66.871-382.166,238.173S140.06,722.28,179.823,762.042L236.616,817.939z"/>
	<g id="XMLID_7_">
		<defs>
			<path id="XMLID_9_" d="M480.975,250.382c12.858-13.826,23.627-27.246,36.224-38.645c68.272-61.782,147.639-82.619,235.561-54.64
				c92.305,29.374,147.322,96.063,169.741,189.178c13.953,57.954,6.998,114.924-12.767,171.142
				c-36.446,103.662-106.118,183.039-184.5,256.111c-70.01,65.266-147.252,121.005-229.861,169.204
				c-6.323,3.689-17.916,5.436-23.575,2.127c-117.806-68.887-226.269-150.05-314.225-255.156
				c-33.056-39.501-63.875-82.756-86.313-128.874c-48.037-98.726-57.437-200.614,3.999-298.517
				c90.641-144.441,282.939-156.911,393.119-26.797C472.189,240.019,476.006,244.518,480.975,250.382z"/>
		</defs>
		<clipPath id="XMLID_10_">
			<use xlink:href="#XMLID_9_"  style="overflow:visible;"/>
		</clipPath>
		<path id="XMLID_17_" class="st1" d="M480.975,250.382c12.858-13.826,23.627-27.246,36.224-38.645
			c68.272-61.782,147.639-82.619,235.561-54.64c92.305,29.374,147.322,96.063,169.741,189.178
			c13.953,57.954,6.998,114.924-12.767,171.142c-36.446,103.662-106.118,183.039-184.5,256.111
			c-70.01,65.266-147.252,121.005-229.861,169.204c-6.323,3.689-17.916,5.436-23.575,2.127
			c-117.806-68.887-226.269-150.05-314.225-255.156c-33.056-39.501-63.875-82.756-86.313-128.874
			c-48.037-98.726-57.437-200.614,3.999-298.517c90.641-144.441,282.939-156.911,393.119-26.797
			C472.189,240.019,476.006,244.518,480.975,250.382z"/>
		<path id="XMLID_3_" class="st2" d="M812.461,153.555c39.763,39.763-67.095,211.088-238.397,382.39s-342.627,278.16-382.39,238.397
			l57.241,55.449c39.763,39.763,210.864-66.871,382.166-238.173s277.935-342.403,238.173-382.166L812.461,153.555z"/>
	</g>
	<path id="XMLID_5_" class="st3" d="M480.975,250.382c0,0,25.356,27.035,34.856,66.22c0,0-9.499-99.875,76.135-153.972
		C591.965,162.63,532.982,185.591,480.975,250.382z"/>
	<path id="XMLID_2_" class="st4" d="M801.379,142.473c39.763,39.763-67.095,211.088-238.397,382.39s-342.627,278.16-382.39,238.397
		l57.242,55.449c39.763,39.763,210.864-66.871,382.166-238.173s277.935-342.403,238.173-382.166L801.379,142.473z"/>
</g>
<g id="XMLID_8_">
	<g id="XMLID_12_">
		<path id="XMLID_13_" class="st4" d="M1025.34,758.279c-14.115-8.113-24.957-19.74-32.519-34.875
			c-7.568-15.125-11.346-32.835-11.346-53.136c0-20.291,3.779-37.96,11.346-52.993c7.562-15.038,18.404-26.614,32.519-34.737
			c14.115-8.118,30.581-12.177,49.398-12.177c12.177,0,23.615,1.8,34.319,5.395c10.699,3.6,20.204,8.817,28.506,15.64
			c2.397,1.846,4.059,3.784,4.982,5.808c0.923,2.035,1.382,4.528,1.382,7.476c0,4.059-1.107,7.476-3.32,10.24
			c-2.213,2.769-4.89,4.151-8.026,4.151c-3.692,0-7.471-1.285-11.346-3.876c-7.935-5.9-15.319-10.005-22.142-12.31
			c-6.828-2.305-14.391-3.463-22.692-3.463c-19.189,0-33.722,5.997-43.59,17.986c-9.872,11.999-14.804,29.617-14.804,52.86
			c0,23.437,4.931,41.147,14.804,53.136c9.867,11.999,24.401,17.991,43.59,17.991c7.93,0,15.263-1.193,22.004-3.595
			c6.731-2.397,14.34-6.456,22.83-12.177c1.841-1.107,3.687-2.03,5.533-2.769c1.846-0.734,3.784-1.107,5.813-1.107
			c3.136,0,5.813,1.382,8.026,4.151s3.32,6.186,3.32,10.24c0,2.769-0.459,5.217-1.382,7.338c-0.923,2.121-2.585,4.105-4.982,5.946
			c-8.302,6.833-17.807,12.04-28.506,15.635c-10.704,3.6-22.142,5.4-34.319,5.4C1055.922,770.457,1039.456,766.403,1025.34,758.279z
			"/>
		<path id="XMLID_15_" class="st4" d="M1350.112,753.848c0,4.253-1.708,7.848-5.12,10.795c-3.417,2.953-7.333,4.431-11.759,4.431
			c-2.958,0-5.722-0.785-8.307-2.356c-2.585-1.56-4.61-4.008-6.089-7.333l-16.604-37.083h-97.419l-16.604,37.083
			c-1.479,3.325-3.508,5.773-6.089,7.333c-2.585,1.571-5.446,2.356-8.577,2.356c-4.248,0-8.123-1.479-11.627-4.431
			c-3.508-2.947-5.257-6.543-5.257-10.795c0-2.392,0.556-4.793,1.662-7.19l76.384-164.12c1.657-3.687,4.192-6.502,7.608-8.44
			c3.411-1.938,7.057-2.907,10.933-2.907c3.875,0,7.516,0.969,10.933,2.907c3.411,1.938,5.951,4.753,7.608,8.44l76.659,164.12
			C1349.561,749.054,1350.112,751.456,1350.112,753.848z M1216.992,694.623h73.064l-36.532-82.192L1216.992,694.623z"/>
		<path id="XMLID_20_" class="st4" d="M1536.363,755.235c0,4.243-1.708,7.751-5.12,10.515c-3.417,2.769-7.43,4.151-12.04,4.151
			c-2.953,0-5.767-0.694-8.44-2.07c-2.677-1.387-4.936-3.463-6.777-6.232l-36.813-55.9c-3.692-5.905-7.608-10.056-11.759-12.458
			c-4.151-2.392-9.551-3.595-16.191-3.595H1412.1v61.988c0,5.538-1.571,9.923-4.702,13.146c-3.141,3.228-7.384,4.844-12.733,4.844
			c-5.354,0-9.643-1.617-12.871-4.844c-3.228-3.223-4.839-7.608-4.839-13.146V589.738c0-5.354,1.52-9.505,4.564-12.458
			c3.044-2.947,7.241-4.431,12.596-4.431h69.189c22.136,0,38.975,4.941,50.505,14.809c11.53,9.872,17.297,24.13,17.297,42.764
			c0,15.125-4.289,27.537-12.866,37.221c-8.582,9.684-20.714,15.915-36.394,18.679c5.349,1.295,10.051,3.6,14.115,6.92
			c4.054,3.32,8.026,7.935,11.897,13.835l25.186,38.47C1535.256,748.871,1536.363,752.099,1536.363,755.235z M1487.934,654.634
			c6.267-5.069,9.408-12.871,9.408-23.386c0-10.699-3.141-18.496-9.408-23.386c-6.277-4.885-16.15-7.333-29.612-7.333h-46.496
			v61.713h46.496C1471.784,662.242,1481.656,659.713,1487.934,654.634z"/>
		<path id="XMLID_23_" class="st4" d="M1573.864,763.537c-3.044-2.947-4.564-7.098-4.564-12.453V589.738
			c0-5.354,1.52-9.505,4.564-12.458c3.044-2.947,7.241-4.431,12.596-4.431h99.908c5.349,0,9.5,1.203,12.453,3.6
			c2.948,2.402,4.426,5.813,4.426,10.24c0,4.615-1.479,8.169-4.426,10.658c-2.953,2.488-7.103,3.733-12.453,3.733h-82.197v53.697
			h76.659c5.349,0,9.5,1.198,12.458,3.595c2.948,2.402,4.426,5.905,4.426,10.515c0,4.431-1.479,7.848-4.426,10.24
			c-2.958,2.402-7.109,3.595-12.458,3.595h-76.659v57.017h82.197c5.349,0,9.5,1.244,12.453,3.738
			c2.948,2.489,4.426,6.043,4.426,10.653c0,4.431-1.479,7.843-4.426,10.24c-2.953,2.402-7.103,3.595-12.453,3.595h-99.908
			C1581.105,767.963,1576.908,766.494,1573.864,763.537z"/>
	</g>
	<g id="XMLID_30_">
		<g id="XMLID_111_">
			<path id="XMLID_123_" class="st5" d="M1073.772,506.457c-1.015-1.198-1.52-2.718-1.52-4.564V322.277h-67.807
				c-1.479,0-2.677-0.459-3.595-1.382c-0.928-0.923-1.387-2.213-1.387-3.876c0-1.479,0.459-2.723,1.387-3.738
				c0.918-1.01,2.116-1.525,3.595-1.525h146.96c1.285,0,2.489,0.515,3.595,1.525c1.107,1.015,1.662,2.259,1.662,3.738
				c0,1.662-0.556,2.953-1.662,3.876c-1.107,0.923-2.31,1.382-3.595,1.382h-67.531v179.617c0,1.846-0.51,3.366-1.52,4.564
				c-1.02,1.198-2.448,1.8-4.294,1.8C1076.215,508.257,1074.787,507.656,1073.772,506.457z"/>
			<path id="XMLID_118_" class="st5" d="M1187.52,504.933c-1.382-1.285-2.075-2.672-2.075-4.151V317.845
				c0-1.657,0.693-3.08,2.075-4.284c1.387-1.203,2.998-1.805,4.844-1.805h106.552c1.474,0,2.672,0.515,3.595,1.525
				c0.923,1.015,1.387,2.351,1.387,4.013c0,1.479-0.464,2.723-1.387,3.738c-0.923,1.015-2.121,1.525-3.595,1.525h-101.845v79.979
				h96.307c1.474,0,2.672,0.459,3.6,1.387c0.918,0.923,1.382,2.213,1.382,3.87c0,1.662-0.464,3.004-1.382,4.013
				c-0.928,1.02-2.126,1.52-3.6,1.52h-96.307v82.753h101.845c1.474,0,2.672,0.459,3.595,1.387c0.923,0.918,1.387,2.213,1.387,3.87
				c0,1.657-0.464,3.004-1.387,4.013c-0.923,1.02-2.121,1.52-3.595,1.52h-106.552C1190.518,506.87,1188.907,506.228,1187.52,504.933
				z"/>
			<path id="XMLID_116_" class="st5" d="M1375.851,497.049c-13.1-8.026-23.156-19.556-30.163-34.594
				c-7.017-15.033-10.52-32.799-10.52-53.279s3.503-38.19,10.52-53.136c7.007-14.941,17.063-26.425,30.163-34.452
				c13.1-8.026,28.598-12.045,46.496-12.045c12.356,0,24.217,2.213,35.563,6.645s20.801,10.52,28.368,18.266
				c1.841,1.846,2.764,4.064,2.764,6.645c0,1.479-0.367,2.723-1.107,3.733c-0.739,1.02-1.657,1.52-2.764,1.52
				c-1.479,0-3.044-0.734-4.707-2.213c-10.515-8.853-20.066-14.941-28.643-18.266c-8.582-3.315-18.593-4.977-30.031-4.977
				c-23.432,0-41.652,7.751-54.656,23.243c-13.009,15.502-19.515,37.185-19.515,65.038c0,28.047,6.461,49.821,19.378,65.313
				c12.912,15.502,31.178,23.253,54.793,23.253c11.627,0,21.678-1.662,30.168-4.987c8.485-3.315,17.991-9.403,28.506-18.266
				c2.03-1.469,3.6-2.213,4.707-2.213s2.025,0.51,2.764,1.525c0.739,1.015,1.107,2.259,1.107,3.738c0,2.585-0.923,4.799-2.764,6.639
				c-7.568,7.751-17.022,13.84-28.368,18.266c-11.346,4.426-23.207,6.639-35.563,6.639
				C1404.449,509.083,1388.952,505.075,1375.851,497.049z"/>
			<path id="XMLID_112_" class="st5" d="M1542.179,402.536h131.177v10.515h-131.177v88.842c0,1.846-0.515,3.366-1.525,4.564
				c-1.015,1.198-2.448,1.8-4.289,1.8c-1.846,0-3.279-0.602-4.289-1.8c-1.02-1.198-1.525-2.718-1.525-4.564v-185.15
				c0-1.846,0.505-3.366,1.525-4.569c1.01-1.193,2.443-1.795,4.289-1.795c1.841,0,3.274,0.602,4.289,1.795
				c1.01,1.203,1.525,2.723,1.525,4.569V402.536z M1683.738,312.175c1.01,1.203,1.52,2.723,1.52,4.569v185.15
				c0,1.846-0.51,3.366-1.52,4.564c-1.02,1.198-2.448,1.8-4.294,1.8c-1.846,0-3.274-0.602-4.289-1.8s-1.52-2.718-1.52-4.564v-185.15
				c0-1.846,0.505-3.366,1.52-4.569c1.015-1.193,2.443-1.795,4.289-1.795C1681.291,310.38,1682.719,310.981,1683.738,312.175z"/>
		</g>
	</g>
</g>
</svg>
