<?xml version="1.0" encoding="utf-8"?>
<!-- Generator: Adobe Illustrator 19.0.0, SVG Export Plug-In . SVG Version: 6.00 Build 0)  -->
<svg version="1.0" id="Layer_1" xmlns="http://www.w3.org/2000/svg" xmlns:xlink="http://www.w3.org/1999/xlink" x="0px" y="0px"
	 viewBox="0 0 1139.943 1049.884" style="enable-background:new 0 0 1139.943 1049.884;" xml:space="preserve">
<style type="text/css">
	.st0{fill:#D86072;}
	.st1{clip-path:url(#XMLID_55_);fill:#BFE9FF;}
	.st2{clip-path:url(#XMLID_55_);fill:#A3C8D8;}
	.st3{fill:#A3C8D8;}
	.st4{fill:#FF6E7F;}
</style>
<g id="XMLID_1_">
	<path id="XMLID_4_" class="st0" d="M275.87,859.121c-48.345-48.345,81.577-256.65,289.853-464.925s416.58-338.198,464.925-289.853
		l-69.596-67.417c-48.345-48.345-256.377,81.305-464.653,289.58s-337.925,416.308-289.58,464.653L275.87,859.121z"/>
	<g id="XMLID_7_">
		<defs>
			<path id="XMLID_9_" d="M572.972,169.062c15.634-16.811,28.727-33.127,44.043-46.986
				c83.008-75.117,179.505-100.452,286.405-66.434c112.228,35.714,179.12,116.798,206.378,230.011
				c16.965,70.463,8.509,139.729-15.523,208.082c-44.313,126.036-129.023,222.547-224.323,311.39
				c-85.121,79.354-179.035,147.123-279.475,205.725c-7.688,4.485-21.783,6.61-28.663,2.587
				C418.58,929.68,286.705,830.998,179.765,703.207c-40.191-48.027-77.661-100.619-104.943-156.69
				C16.416,426.481,4.986,302.602,79.683,183.568C189.888,7.951,423.693-7.211,557.654,150.987
				C562.29,156.461,566.929,161.932,572.972,169.062z"/>
		</defs>
		<clipPath id="XMLID_55_">
			<use xlink:href="#XMLID_9_"  style="overflow:visible;"/>
		</clipPath>
		<path id="XMLID_17_" class="st1" d="M572.972,169.062c15.634-16.811,28.727-33.127,44.043-46.986
			c83.008-75.117,179.505-100.452,286.405-66.434c112.228,35.714,179.12,116.798,206.378,230.011
			c16.965,70.463,8.509,139.729-15.523,208.082c-44.313,126.036-129.023,222.547-224.323,311.39
			c-85.121,79.354-179.035,147.123-279.475,205.725c-7.688,4.485-21.783,6.61-28.663,2.587
			C418.58,929.68,286.705,830.998,179.765,703.207c-40.191-48.027-77.661-100.619-104.943-156.69
			C16.416,426.481,4.986,302.602,79.683,183.568C189.888,7.951,423.693-7.211,557.654,150.987
			C562.29,156.461,566.929,161.932,572.972,169.062z"/>
		<path id="XMLID_3_" class="st2" d="M976.006,51.335c48.345,48.345-81.577,256.65-289.853,464.925s-416.58,338.198-464.925,289.853
			l69.597,67.417c48.345,48.345,256.377-81.305,464.653-289.58s337.925-416.308,289.58-464.653L976.006,51.335z"/>
	</g>
	<path id="XMLID_5_" class="st3" d="M572.972,169.062c0,0,30.829,32.87,42.379,80.513c0,0-11.55-121.432,92.568-187.205
		C707.918,62.369,636.204,90.285,572.972,169.062z"/>
	<path id="XMLID_2_" class="st4" d="M962.531,37.861c48.345,48.345-81.577,256.65-289.853,464.925s-416.58,338.198-464.925,289.853
		l69.597,67.417c48.345,48.345,256.377-81.305,464.653-289.58s337.925-416.308,289.58-464.653L962.531,37.861z"/>
</g>
</svg>
